<?xml version="1.0" encoding="UTF-8" standalone="no"?>
<svg
   viewBox="0 0 24 24"
   width="24"
   height="24"
   version="1.1"
   id="svg1896"
   sodipodi:docname="audio-headset-black.svg"
   inkscape:version="1.2.2 (b0a8486541, 2022-12-01)"
   xmlns:inkscape="http://www.inkscape.org/namespaces/inkscape"
   xmlns:sodipodi="http://sodipodi.sourceforge.net/DTD/sodipodi-0.dtd"
   xmlns="http://www.w3.org/2000/svg"
   xmlns:svg="http://www.w3.org/2000/svg">
  <sodipodi:namedview
     id="namedview1898"
     pagecolor="#ffffff"
     bordercolor="#000000"
     borderopacity="0.25"
     inkscape:showpageshadow="2"
     inkscape:pageopacity="0.0"
     inkscape:pagecheckerboard="0"
     inkscape:deskcolor="#d1d1d1"
     showgrid="false"
     inkscape:zoom="30.958333"
     inkscape:cx="10.336474"
     inkscape:cy="12.064603"
     inkscape:window-width="2560"
     inkscape:window-height="1416"
     inkscape:window-x="0"
     inkscape:window-y="0"
     inkscape:window-maximized="1"
     inkscape:current-layer="svg1896" />
  <defs
     id="defs3051">
    <style
       type="text/css"
       id="current-color-scheme">
      .ColorScheme-Text {
        color:#232629;
      }
      </style>
  </defs>
  <g
     transform="translate(1,1)"
     id="g1894">
    <path
       style="fill:currentColor;fill-opacity:1;stroke:none"
       d="M 11,3 C 6.581722,3 3,6.581722 3,11 l 0,8 1,0 0,-3 2,2 1,0 0,-6 -1,0 -2,2 0,-3 c 0,-3.8659932 3.1340068,-7 7,-7 3.865993,0 7,3.1340068 7,7 l 0,3 -2,-2 -1,0 0,6 1,0 2,-2 0,3 -4.087946,0 c -0.211633,-0.598592 -0.777207,-0.999109 -1.412109,-1 -0.828427,0 -1.5,0.671573 -1.5,1.5 0,0.828427 0.671573,1.5 1.5,1.5 0.634902,-8.91e-4 1.200476,-0.401408 1.412109,-1 L 19,20 19,19 19,11 C 19,6.581722 15.418278,3 11,3 Z"
       class="ColorScheme-Text"
       id="path1892" />
  </g>
  <text
     xml:space="preserve"
     style="font-style:italic;font-variant:normal;font-weight:bold;font-stretch:normal;font-size:4.01468px;line-height:0;font-family:sans-serif;-inkscape-font-specification:'sans-serif Bold Italic';letter-spacing:-0.3px;fill:#232629;fill-opacity:1;stroke-width:0.334558"
     x="10.454502"
     y="16.173616"
     id="text170"
     transform="scale(0.9312076,1.0738744)"><tspan
       sodipodi:role="line"
       id="tspan168"
       x="10.454502"
       y="16.173616"
       style="font-style:italic;font-variant:normal;font-weight:bold;font-stretch:normal;font-family:sans-serif;-inkscape-font-specification:'sans-serif Bold Italic';fill:#232629;fill-opacity:1;stroke-width:0.334558">7.1</tspan></text>
</svg>
